
<svg xmlns="http://www.w3.org/2000/svg" width="241" height="63" viewBox="0 0 241 63">
    <g fill="none" fill-rule="evenodd">
        <g fill-rule="nonzero">
            <g>
                <path fill="#000" d="M134.018 59.059L133.926 59.059 128.827 51.558 128.827 63 126 63 126 47 129.048 47 134 54.555 138.952 47 142 47 142 63 139.155 63 139.155 51.522zM160.45 58.04c-.428.96-1.052 1.83-1.833 2.558-.767.744-1.676 1.339-2.678 1.753-1.076.444-2.239.665-3.411.648-1.176.013-2.343-.202-3.43-.63-.997-.404-1.896-1.001-2.64-1.753-.782-.715-1.406-1.573-1.834-2.523-.832-1.986-.832-4.2 0-6.186.832-1.928 2.427-3.464 4.438-4.275 1.08-.431 2.24-.646 3.41-.631 1.175-.01 2.34.198 3.43.613.994.41 1.892 1.006 2.641 1.752.786.719 1.41 1.584 1.834 2.541.83 1.98.83 4.189 0 6.168m-2.77-5.17c-.495-1.31-1.527-2.374-2.86-2.943-.698-.298-1.455-.447-2.22-.438-1.486-.028-2.914.552-3.924 1.595-.494.505-.875 1.1-1.118 1.752-.538 1.367-.538 2.874 0 4.24.248.649.629 1.244 1.118 1.753.52.508 1.144.908 1.834 1.174.697.303 1.454.458 2.22.455.757.004 1.507-.145 2.2-.438.658-.265 1.247-.666 1.724-1.174.492-.506.872-1.102 1.119-1.752.537-1.373.537-2.885 0-4.258M175.393 47L178 47 178 63 175.816 63 167.607 51.613 167.607 63 165 63 165 47 167.421 47 175.393 58.06zM185.597 51.969c.132.255.324.475.559.638.355.225.736.404 1.135.532.471.16 1.082.337 1.746.514.73.18 1.448.412 2.148.692.565.216 1.09.528 1.554.922.396.352.712.788.925 1.277.246.556.36 1.164.332 1.773.012.686-.131 1.366-.42 1.986-.253.573-.636 1.077-1.117 1.472-.513.427-1.107.74-1.746.922-.722.206-1.468.307-2.217.302-1.191.018-2.375-.186-3.493-.603-1.111-.431-2.131-1.075-3.003-1.898l1.624-1.95c.679.605 1.437 1.112 2.252 1.507.824.35 1.71.525 2.602.514.702.038 1.398-.148 1.99-.532.464-.334.737-.877.734-1.454 0-.26-.047-.52-.14-.762-.127-.24-.306-.446-.523-.603-.328-.23-.687-.41-1.066-.532-.454-.16-1.03-.337-1.746-.515-.744-.172-1.478-.385-2.2-.638-.577-.218-1.119-.522-1.606-.904-.43-.343-.772-.788-.996-1.295-.23-.561-.343-1.165-.331-1.773-.029-1.269.51-2.482 1.466-3.299.514-.43 1.108-.75 1.747-.94.677-.219 1.384-.326 2.095-.319 2.036-.057 4.023.643 5.587 1.969l-1.379 1.933c-.643-.49-1.348-.889-2.095-1.189-.659-.278-1.365-.423-2.078-.425-.661-.038-1.315.156-1.851.55-.403.322-.646.809-.664 1.33-.009.274.045.548.158.798M203.927 63L201.091 63 201.091 49.597 196 49.597 196 47 209 47 209 49.597 203.927 49.597zM223.891 49.524L214.79 49.524 214.79 53.647 222.851 53.647 222.851 56.19 214.79 56.19 214.79 60.457 224 60.457 224 63 212 63 212 47 223.891 47zM237.872 62.982l-3.791-5.569h-3.39v5.569H228v-15.98h6.867c.804-.015 1.606.101 2.376.344.64.22 1.232.565 1.748 1.016.491.43.875.978 1.118 1.596.282.662.42 1.38.402 2.104.014.617-.08 1.232-.28 1.814-.173.506-.427.978-.751 1.397-.33.4-.72.743-1.153 1.015-.46.295-.962.515-1.486.653L241 63l-3.128-.018zM237 50.284c-.69-.497-1.52-.74-2.36-.689h-3.948v5.442h3.966c.828.05 1.645-.208 2.307-.726.577-.477.901-1.211.873-1.977.051-.767-.262-1.512-.838-1.995M136.911 36.964l-3.839-5.563h-3.49v5.563H127V21h6.858c.804-.007 1.605.115 2.373.363.64.209 1.232.547 1.745.996.492.433.88.98 1.134 1.595.272.67.408 1.392.401 2.12.019.617-.076 1.232-.279 1.812-.169.507-.423.98-.75 1.395-.334.4-.722.749-1.152 1.033-.467.279-.965.498-1.483.652L140 37l-3.089-.036zm-.89-12.684c-.69-.49-1.52-.726-2.355-.67h-3.996v5.435h3.978c.827.05 1.643-.207 2.304-.724.567-.483.884-1.214.855-1.975.05-.772-.262-1.521-.838-2.012M154.891 23.543L145.79 23.543 145.79 27.665 153.851 27.665 153.851 30.19 145.79 30.19 145.79 34.476 155 34.476 155 37 143 37 143 21 154.891 21zM171.907 21L175 21 168.243 37 165.757 37 159 21 162.148 21 167.046 33.198zM189.891 23.543L180.79 23.543 180.79 27.665 188.851 27.665 188.851 30.19 180.79 30.19 180.79 34.476 190 34.476 190 37 178 37 178 21 189.891 21zM205.41 21L208 21 208 37 205.816 37 197.607 25.631 197.607 37 195 37 195 21 197.438 21 205.41 32.06zM224.998 29.938c.02 1.045-.138 2.086-.465 3.075-.272.83-.72 1.588-1.31 2.216-.574.606-1.276 1.065-2.051 1.341-.873.298-1.788.443-2.707.43-.901.012-1.799-.133-2.654-.43-1.6-.573-2.84-1.9-3.344-3.575-.326-.958-.484-1.97-.466-2.985V21h2.655v8.938c-.081 1.213.282 2.413 1.017 3.36 1.607 1.502 4.047 1.502 5.654 0 .749-.905 1.12-2.081 1.034-3.27V21h2.637v8.938zM240.873 23.543L231.804 23.543 231.804 27.665 239.853 27.665 239.853 30.19 231.804 30.19 231.804 34.476 241 34.476 241 37 229 37 229 21 240.873 21zM95 32H106V63H95zM32 42H43V63H32zM0 10L0 20.5 31.504 20.5 31.504 31 42 31 42 20.5 42 10.573 42 10zM0 38.908L0 42.327 0 63 10.661 63 10.661 42.327 32 42.327 32 32 0 32zM53 11L62.067 11 74 11 74 21.396 95 21.396 95 31.793 84.5 31.793 84.5 42.189 74 42.189 74 31.793 63.5 31.793 63.5 63 53 63z" transform="translate(-162 -89) translate(162 89)"/>
                <path fill="#4F3DF5" d="M95 0L106 0 100.5 5z" transform="translate(-162 -89) translate(162 89)"/>
                <path fill="#4A89F7" d="M106 10L95 10 100.5 5z" transform="translate(-162 -89) translate(162 89)"/>
                <path fill="#4757F6" d="M95 10L95 0 100 5zM106 0L106 10 101 5z" transform="translate(-162 -89) translate(162 89)"/>
                <path fill="#4B92F8" d="M95 11L106 11 100.5 16z" transform="translate(-162 -89) translate(162 89)"/>
                <path fill="#55AFF3" d="M106 21L95 21 100.5 16z" transform="translate(-162 -89) translate(162 89)"/>
                <path fill="#4E9DF2" d="M95 21L95 11 100 15.991z" transform="translate(-162 -89) translate(162 89)"/>
                <path fill="#5EB9EF" d="M106 11L106 21 101 16.009z" transform="translate(-162 -89) translate(162 89)"/>
                <path fill="#5FD9ED" d="M106 11L117 11 111.491 16z" transform="translate(-162 -89) translate(162 89)"/>
                <path fill="#77EDD7" d="M117 21L106 21 111.491 16z" transform="translate(-162 -89) translate(162 89)"/>
                <path fill="#60D0EA" d="M106 21L106 11 111 15.991z" transform="translate(-162 -89) translate(162 89)"/>
                <path fill="#95EFDE" d="M116 11L116 21 111 16.009z" transform="translate(-162 -89) translate(162 89)"/>
                <path fill="#4854F6" d="M84 11L95 11 89.5 16z" transform="translate(-162 -89) translate(162 89)"/>
                <path fill="#4757F6" d="M95 21L84 21 89.5 16z" transform="translate(-162 -89) translate(162 89)"/>
                <path fill="#4F3DF5" d="M85 21L85 11 90 15.991z" transform="translate(-162 -89) translate(162 89)"/>
                <path fill="#4A89F7" d="M95 11L95 21 90 16.009z" transform="translate(-162 -89) translate(162 89)"/>
                <path fill="#60D0EA" d="M95 21L106 21 100.5 26z" transform="translate(-162 -89) translate(162 89)"/>
                <path fill="#77EDD7" d="M106 31L95 31 100.5 26z" transform="translate(-162 -89) translate(162 89)"/>
                <path fill="#5FD9ED" d="M95 31L95 21 100 26z" transform="translate(-162 -89) translate(162 89)"/>
                <path fill="#95EFDE" d="M106 21L106 31 101 26z" transform="translate(-162 -89) translate(162 89)"/>
            </g>
        </g>
    </g>
</svg>
